<svg height='300px' width='300px'  fill="#ff0004" xmlns="http://www.w3.org/2000/svg" xmlns:xlink="http://www.w3.org/1999/xlink" version="1.1" x="0px" y="0px" viewBox="0 0 48 48" enable-background="new 0 0 48 48" xml:space="preserve"><polygon points="35.006,10.873 24,21.879 12.995,10.873 10.874,12.994 21.879,24 10.874,35.006 12.995,37.127 24,26.121   35.006,37.127 37.127,35.006 26.121,24 37.127,12.994 "></polygon><path d="M24,0C10.767,0,0,10.767,0,24s10.767,24,24,24s24-10.767,24-24S37.233,0,24,0z M24,45C12.42,45,3,35.579,3,24  C3,12.42,12.42,3,24,3c11.579,0,21,9.42,21,21C45,35.579,35.579,45,24,45z"></path></svg>