<svg height='300px' width='300px'  fill="#34c8ff" xmlns="http://www.w3.org/2000/svg" xmlns:xlink="http://www.w3.org/1999/xlink" xmlns:sketch="http://www.bohemiancoding.com/sketch/ns" viewBox="0 0 30 30" version="1.1" x="0px" y="0px"><title>file_text_document_page_paper_files_empty-collection</title><desc>Created with Sketch.</desc><g stroke="none" stroke-width="1" fill="none" fill-rule="evenodd" sketch:type="MSPage"><g sketch:type="MSArtboardGroup" transform="translate(-315.000000, -315.000000)" fill="#34c8ff"><path d="M321,321 L321,319 L323,319 L323,316 L336,316 L341,321 L341,340 L339,340 L339,340 L339,342 L337,342 L337,344 L319,344 L319,321 L321,321 Z M321,322 L321,342 L336,342 L336,343 L320,343 L320,322 L321,322 Z M338,340 L323,340 L323,320 L322,320 L322,341 L338,341 L338,340 L338,340 Z M335,317 L324,317 L324,339 L340,339 L340,322 L335,322 L335,317 L335,317 Z M336,317.4 L339.6,321 L336,321 L336,317.4 L336,317.4 Z" sketch:type="MSShapeGroup"></path></g></g></svg>