<svg height='100px' width='100px'  fill="#02baff" xmlns="http://www.w3.org/2000/svg" xmlns:xlink="http://www.w3.org/1999/xlink" version="1.1" x="0px" y="0px" viewBox="44 -44 600 600" style="enable-background:new 44 -44 600 600;" xml:space="preserve"><g><g><g><path d="M503.4,331h-240c-2.3,0-4.2-1.5-4.8-3.7l-60-220c-0.4-1.5-0.1-3.1,0.9-4.4c0.9-1.2,2.4-2,4-2h147c1.6,0,3.1,0.8,4.1,2.1     c0.9,1.3,1.2,3,0.6,4.6c-4.5,12.5-6.7,25.6-6.7,38.9c0,30.9,12,59.9,33.9,81.7s50.9,33.9,81.7,33.9c23.6,0,46.4-7.1,65.7-20.5     c1.8-1.2,4.2-1.2,5.9,0.2c1.7,1.3,2.4,3.6,1.6,5.7l-29.2,80.2C507.4,329.7,505.5,331,503.4,331z M267.2,321h232.7l23.1-63.5     c-18.1,9.7-38.2,14.7-59,14.7c-33.5,0-65.1-13.1-88.8-36.8c-23.7-23.7-36.8-55.3-36.8-88.8c0-12.1,1.7-24.1,5.1-35.6H210     L267.2,321z"></path></g><g><path d="M464,272.2c-69.3,0-125.6-56.3-125.6-125.6c0-14.5,2.5-28.7,7.3-42.3C363.5,54.5,411.1,21,464,21s100.5,33.5,118.3,83.3     c1.1,2.9,2,5.9,2.8,8.9c3,10.8,4.5,22,4.5,33.3c0,41.2-20.2,79.8-54.2,103.3C514.4,264.5,489.7,272.2,464,272.2z M464,31     c-48.7,0-92.5,30.8-108.9,76.7c-4.5,12.5-6.7,25.6-6.7,38.9c0,63.7,51.9,115.6,115.6,115.6c23.6,0,46.4-7.1,65.7-20.5     c31.2-21.6,49.9-57.2,49.9-95.1c0-10.4-1.4-20.7-4.1-30.7c-0.8-2.8-1.6-5.5-2.6-8.2C556.5,61.8,512.7,31,464,31z"></path></g><g><path d="M203.4,111c-2.1,0-4-1.3-4.7-3.4L179.8,51h-76.4c-2.8,0-5-2.2-5-5s2.2-5,5-5h80c2.2,0,4.1,1.4,4.7,3.4l20,60     c0.9,2.6-0.5,5.5-3.2,6.3C204.5,110.9,203.9,111,203.4,111z"></path></g><g><path d="M563.4,411h-280c-2.3,0-4.3-1.6-4.9-3.8l-20-80c-0.7-2.7,1-5.4,3.6-6.1c2.7-0.7,5.4,1,6.1,3.6l19.1,76.2h276.1     c2.8,0,5,2.2,5,5S566.2,411,563.4,411z"></path></g><g><path d="M303.4,491c-24.8,0-45-20.2-45-45s20.2-45,45-45s45,20.2,45,45S328.2,491,303.4,491z M303.4,411c-19.3,0-35,15.7-35,35     s15.7,35,35,35s35-15.7,35-35S322.7,411,303.4,411z"></path></g><g><path d="M503.4,491c-24.8,0-45-20.2-45-45s20.2-45,45-45c24.8,0,45,20.2,45,45S528.2,491,503.4,491z M503.4,411     c-19.3,0-35,15.7-35,35s15.7,35,35,35c19.3,0,35-15.7,35-35S522.7,411,503.4,411z"></path></g><g><path d="M423.4,171c-1.8,0-3.6-1-4.5-2.8c-1.2-2.5-0.2-5.5,2.2-6.7l37.2-18.6V86c0-2.8,2.2-5,5-5s5,2.2,5,5v60     c0,1.9-1.1,3.6-2.8,4.5l-40,20C424.9,170.8,424.2,171,423.4,171z"></path></g></g></g></svg>