<svg height='100px' width='100px'  fill="#02baff" xmlns="http://www.w3.org/2000/svg" xmlns:xlink="http://www.w3.org/1999/xlink" version="1.1" x="0px" y="0px" viewBox="0 0 64 64" style="enable-background:new 0 0 64 64;" xml:space="preserve"><g><g><g><path d="M40.6,18.2c-0.2-1.1-0.6-1.9-1.2-2.6c-0.9-1-2.1-1.5-3.5-1.5h-0.2c-1.5,0-2.8,0.6-3.6,1.7c-0.3-0.4-0.7-0.7-1.2-1     c-0.9-0.6-2-0.8-3.2-0.7c-1.3,0.1-2.4,0.7-3.2,1.7c-0.8,1.1-1.2,2.3-1.2,3.6c0,1.2,0.4,2.3,1.1,3.4c0.8,1.2,1.7,2.1,2.6,2.8     c1.2,1.1,2.7,2.1,4.5,3.1c0.2,0.1,0.3,0.1,0.5,0.1s0.3,0,0.5-0.1c1.6-0.9,2.9-1.8,4.2-2.8c1.3-1.1,2.2-2.1,2.9-3.2     C40.6,21.3,40.9,19.8,40.6,18.2z"></path></g><rect x="17" y="36.1" width="30.1" height="2.5"></rect><rect x="17" y="47.4" width="30.1" height="2.5"></rect></g><path d="M49.6,63.6H14.4c-4.8,0-8.6-3.9-8.6-8.6V9c0-4.8,3.9-8.6,8.6-8.6h35.3c4.8,0,8.6,3.9,8.6,8.6V55   C58.3,59.7,54.4,63.6,49.6,63.6z M14.4,4.7C12,4.7,10,6.6,10,9V55c0,2.4,2,4.4,4.4,4.4h35.3c2.4,0,4.4-2,4.4-4.4V9   c0-2.4-2-4.4-4.4-4.4H14.4z"></path></g></svg>